<svg width="24" height="26" viewBox="0 0 24 26" fill="none" xmlns="http://www.w3.org/2000/svg">
<path d="M9.67945 14.3003C9.60897 14.3003 8.05847 14.3003 7.35369 14.3003C6.97781 14.3003 6.86035 14.1545 6.86035 13.7899C6.86035 12.8178 6.86035 11.8214 6.86035 10.8493C6.86035 10.4605 7.00131 10.339 7.35369 10.339H9.67945C9.67945 10.2661 9.67945 8.85653 9.67945 8.20036C9.67945 7.22825 9.8439 6.30476 10.3137 5.45417C10.8071 4.57927 11.5119 3.99601 12.4046 3.65578C12.9919 3.43705 13.5792 3.33984 14.2135 3.33984H16.5158C16.8447 3.33984 16.9856 3.48566 16.9856 3.8259V6.59639C16.9856 6.93662 16.8447 7.08244 16.5158 7.08244C15.8815 7.08244 15.2472 7.08244 14.6129 7.10674C13.9786 7.10674 13.6497 7.42268 13.6497 8.10315C13.6262 8.83222 13.6497 9.537 13.6497 10.2904H16.3748C16.7507 10.2904 16.8916 10.4362 16.8916 10.825V13.7656C16.8916 14.1545 16.7742 14.276 16.3748 14.276C15.5291 14.276 13.7202 14.276 13.6497 14.276V22.1986C13.6497 22.6118 13.5322 22.7576 13.1094 22.7576C12.1227 22.7576 11.1595 22.7576 10.1728 22.7576C9.8204 22.7576 9.67945 22.6118 9.67945 22.2472C9.67945 19.6955 9.67945 14.3732 9.67945 14.3003Z" fill="white"/>
</svg>
