<svg width="22" height="22" viewBox="0 0 22 22" fill="none" xmlns="http://www.w3.org/2000/svg">
<g clip-path="url(#clip0_242_199)">
<path d="M21.4744 6.3884C21.425 5.26756 21.2438 4.497 20.9841 3.82929C20.7163 3.12054 20.3042 2.48599 19.7643 1.95849C19.2368 1.42278 18.5981 1.00651 17.8975 0.742838C17.2259 0.483192 16.4594 0.301939 15.3386 0.252521C14.2093 0.198918 13.8509 0.186523 10.9869 0.186523C8.12288 0.186523 7.7644 0.198918 6.63938 0.248336C5.51854 0.297754 4.74797 0.479168 4.08043 0.738653C3.37151 1.00651 2.73697 1.41859 2.20947 1.95849C1.67375 2.48599 1.25765 3.12472 0.993815 3.82527C0.734169 4.497 0.552916 5.26338 0.503498 6.38422C0.449895 7.51343 0.4375 7.87191 0.4375 10.7359C0.4375 13.5999 0.449895 13.9584 0.499313 15.0834C0.548731 16.2042 0.730145 16.9748 0.98979 17.6425C1.25765 18.3513 1.67375 18.9858 2.20947 19.5133C2.73697 20.049 3.3757 20.4653 4.07624 20.729C4.74797 20.9886 5.51435 21.1699 6.63535 21.2193C7.76022 21.2689 8.11886 21.2811 10.9829 21.2811C13.8468 21.2811 14.2053 21.2689 15.3303 21.2193C16.4512 21.1699 17.2218 20.9886 17.8893 20.729C19.307 20.1809 20.4278 19.06 20.9759 17.6425C21.2354 16.9708 21.4168 16.2042 21.4662 15.0834C21.5156 13.9584 21.528 13.5999 21.528 10.7359C21.528 7.87191 21.5239 7.51343 21.4744 6.3884ZM19.5748 15.001C19.5294 16.0312 19.3564 16.5875 19.2122 16.9584C18.8577 17.8774 18.1283 18.6067 17.2094 18.9612C16.8385 19.1054 16.2781 19.2785 15.252 19.3237C14.1393 19.3733 13.8056 19.3855 10.9911 19.3855C8.17649 19.3855 7.83861 19.3733 6.73001 19.3237C5.69979 19.2785 5.14348 19.1054 4.7726 18.9612C4.31528 18.7922 3.89901 18.5243 3.56114 18.174C3.21086 17.832 2.94301 17.4199 2.77399 16.9626C2.62976 16.5917 2.45672 16.0312 2.41148 15.0052C2.3619 13.8925 2.34967 13.5587 2.34967 10.7441C2.34967 7.92954 2.3619 7.59166 2.41148 6.48321C2.45672 5.453 2.62976 4.89669 2.77399 4.52581C2.94301 4.06833 3.21086 3.65222 3.56532 3.31418C3.90722 2.96391 4.31931 2.69606 4.77679 2.5272C5.14766 2.38297 5.70816 2.20993 6.73419 2.16453C7.84682 2.11511 8.18067 2.10272 10.9951 2.10272C13.8138 2.10272 14.1475 2.11511 15.2561 2.16453C16.2864 2.20993 16.8427 2.38297 17.2135 2.5272C17.6709 2.69606 18.0871 2.96391 18.425 3.31418C18.7753 3.65625 19.0431 4.06833 19.2122 4.52581C19.3564 4.89669 19.5294 5.45703 19.5748 6.48321C19.6242 7.59584 19.6366 7.92954 19.6366 10.7441C19.6366 13.5587 19.6242 13.8883 19.5748 15.001Z" fill="white"/>
<path d="M10.9873 5.31689C7.99564 5.31689 5.56836 7.74401 5.56836 10.7358C5.56836 13.7276 7.99564 16.1547 10.9873 16.1547C13.9791 16.1547 16.4062 13.7276 16.4062 10.7358C16.4062 7.74401 13.9791 5.31689 10.9873 5.31689ZM10.9873 14.2509C9.04645 14.2509 7.47216 12.6768 7.47216 10.7358C7.47216 8.79483 9.04645 7.22069 10.9873 7.22069C12.9283 7.22069 14.5024 8.79483 14.5024 10.7358C14.5024 12.6768 12.9283 14.2509 10.9873 14.2509Z" fill="white"/>
<path d="M17.8848 5.10296C17.8848 5.80157 17.3183 6.36803 16.6196 6.36803C15.9209 6.36803 15.3545 5.80157 15.3545 5.10296C15.3545 4.40419 15.9209 3.83789 16.6196 3.83789C17.3183 3.83789 17.8848 4.40419 17.8848 5.10296Z" fill="white"/>
</g>
<defs>
<clipPath id="clip0_242_199">
<rect width="21.0946" height="21.0946" fill="white" transform="translate(0.400391 0.186523)"/>
</clipPath>
</defs>
</svg>
