<svg width="20" height="19" viewBox="0 0 20 19" fill="none" xmlns="http://www.w3.org/2000/svg">
<path d="M19.6812 18.1398V11.5691C19.6812 8.33986 18.9243 5.87305 14.8226 5.87305C12.8449 5.87305 11.5265 6.85977 10.9894 7.80164H10.9406V6.16458H7.05859V18.1398H11.1115V12.197C11.1115 10.6273 11.4289 9.12475 13.5286 9.12475C15.6038 9.12475 15.6283 10.8964 15.6283 12.2868V18.1174H19.6812V18.1398Z" fill="white"/>
<path d="M0.467773 6.16504H4.52066V18.1403H0.467773V6.16504Z" fill="white"/>
<path d="M2.49325 0.200195C1.19926 0.200195 0.149414 1.16449 0.149414 2.35305C0.149414 3.5416 1.19926 4.52832 2.49325 4.52832C3.78725 4.52832 4.83709 3.5416 4.83709 2.35305C4.83709 1.16449 3.78725 0.200195 2.49325 0.200195Z" fill="white"/>
</svg>
