<svg width="22" height="21" viewBox="0 0 22 21" fill="none" xmlns="http://www.w3.org/2000/svg">
<g clip-path="url(#clip0_242_207)">
<path d="M20.7755 6.1265C20.5479 5.31311 19.881 4.67193 19.0352 4.45291C17.49 4.04639 11.3092 4.04639 11.3092 4.04639C11.3092 4.04639 5.12862 4.04639 3.58345 4.43749C2.75392 4.65628 2.07069 5.31323 1.84315 6.1265C1.43652 7.61213 1.43652 10.6931 1.43652 10.6931C1.43652 10.6931 1.43652 13.7897 1.84315 15.2598C2.07094 16.073 2.73765 16.7142 3.58357 16.9332C5.14489 17.3399 11.3094 17.3399 11.3094 17.3399C11.3094 17.3399 17.49 17.3399 19.0352 16.9488C19.8811 16.7299 20.5479 16.0887 20.7757 15.2754C21.1822 13.7897 21.1822 10.7088 21.1822 10.7088C21.1822 10.7088 21.1985 7.61213 20.7755 6.1265ZM9.34137 13.5395V7.84679L14.481 10.6931L9.34137 13.5395Z" fill="white"/>
</g>
<defs>
<clipPath id="clip0_242_207">
<rect width="21.0622" height="20.2521" fill="white" transform="translate(0.789062 0.746094)"/>
</clipPath>
</defs>
</svg>
